<svg id="svg" version="1.1" xmlns="http://www.w3.org/2000/svg" xmlns:xlink="http://www.w3.org/1999/xlink" width="400" height="1047.2727272727273" viewBox="0, 0, 400,1047.2727272727273"><g id="svgg"><path id="path0" d="M0.000 47.162 L 0.000 94.323 14.410 94.323 L 28.821 94.323 28.821 68.996 L 28.821 43.668 32.533 43.668 L 36.245 43.668 36.245 39.956 L 36.245 36.245 196.288 36.245 L 356.332 36.245 356.332 39.956 L 356.332 43.668 360.044 43.668 L 363.755 43.668 363.755 68.996 L 363.755 94.323 381.878 94.323 L 400.000 94.323 400.000 47.162 L 400.000 0.000 200.000 0.000 L 0.000 0.000 0.000 47.162 M65.502 69.214 L 65.502 72.926 62.009 72.926 L 58.515 72.926 58.515 76.419 L 58.515 79.913 62.009 79.913 L 65.502 79.913 65.502 83.624 L 65.502 87.336 72.936 87.336 L 80.370 87.336 80.251 94.651 L 80.131 101.965 72.817 102.085 L 65.502 102.205 65.502 105.687 L 65.502 109.170 79.913 109.170 L 94.323 109.170 94.323 105.459 L 94.323 101.747 98.035 101.747 L 101.747 101.747 101.747 94.541 L 101.747 87.336 98.035 87.336 L 94.323 87.336 94.323 83.850 L 94.323 80.365 83.515 80.248 L 72.707 80.131 72.707 76.419 L 72.707 72.707 83.515 72.591 L 94.323 72.474 94.323 68.988 L 94.323 65.502 79.913 65.502 L 65.502 65.502 65.502 69.214 M123.581 69.214 L 123.581 72.926 120.087 72.926 L 116.594 72.926 116.594 87.336 L 116.594 101.747 120.087 101.747 L 123.581 101.747 123.581 105.459 L 123.581 109.170 137.974 109.170 L 152.366 109.170 152.493 105.568 L 152.620 101.965 156.223 101.838 L 159.825 101.711 159.825 98.236 L 159.825 94.760 152.620 94.760 L 145.415 94.760 145.415 98.472 L 145.415 102.183 138.210 102.183 L 131.004 102.183 131.004 87.336 L 131.004 72.489 138.210 72.489 L 145.415 72.489 145.415 76.201 L 145.415 79.913 152.620 79.913 L 159.825 79.913 159.825 76.437 L 159.825 72.961 156.223 72.834 L 152.620 72.707 152.493 69.105 L 152.366 65.502 137.974 65.502 L 123.581 65.502 123.581 69.214 M182.096 69.214 L 182.096 72.926 178.384 72.926 L 174.672 72.926 174.672 87.336 L 174.672 101.747 178.384 101.747 L 182.096 101.747 182.096 105.459 L 182.096 109.170 196.507 109.170 L 210.917 109.170 210.917 105.459 L 210.917 101.747 214.410 101.747 L 217.904 101.747 217.904 87.336 L 217.904 72.926 214.410 72.926 L 210.917 72.926 210.917 69.214 L 210.917 65.502 196.507 65.502 L 182.096 65.502 182.096 69.214 M232.751 87.336 L 232.751 109.170 239.956 109.170 L 247.162 109.170 247.162 101.747 L 247.162 94.323 250.873 94.323 L 254.585 94.323 254.585 98.035 L 254.585 101.747 258.061 101.747 L 261.537 101.747 261.664 98.144 L 261.790 94.541 265.393 94.415 L 268.996 94.288 268.996 90.812 L 268.996 87.336 272.707 87.336 L 276.419 87.336 276.419 80.131 L 276.419 72.926 272.707 72.926 L 268.996 72.926 268.996 69.214 L 268.996 65.502 250.873 65.502 L 232.751 65.502 232.751 87.336 M290.830 87.336 L 290.830 109.170 312.664 109.170 L 334.498 109.170 334.498 105.683 L 334.498 102.195 319.978 102.080 L 305.459 101.965 305.339 94.651 L 305.219 87.336 316.147 87.336 L 327.074 87.336 327.074 83.850 L 327.074 80.365 316.266 80.248 L 305.459 80.131 305.459 76.419 L 305.459 72.707 319.978 72.592 L 334.498 72.477 334.498 68.990 L 334.498 65.502 312.664 65.502 L 290.830 65.502 290.830 87.336 M203.712 87.336 L 203.712 101.965 196.397 102.085 L 189.083 102.205 189.083 87.336 L 189.083 72.468 196.397 72.588 L 203.712 72.707 203.712 87.336 M262.009 79.913 L 262.009 87.336 254.585 87.336 L 247.162 87.336 247.162 79.913 L 247.162 72.489 254.585 72.489 L 262.009 72.489 262.009 79.913 M58.515 98.253 L 58.515 101.747 62.009 101.747 L 65.502 101.747 65.502 98.253 L 65.502 94.760 62.009 94.760 L 58.515 94.760 58.515 98.253 M262.009 105.677 L 262.009 109.170 269.214 109.170 L 276.419 109.170 276.419 105.677 L 276.419 102.183 269.214 102.183 L 262.009 102.183 262.009 105.677 M0.000 651.528 L 0.000 1048.035 200.000 1048.035 L 400.000 1048.035 400.000 651.528 L 400.000 255.022 200.000 255.022 L 0.000 255.022 0.000 651.528 M356.332 331.004 L 356.332 334.498 360.044 334.498 L 363.755 334.498 363.755 407.424 L 363.755 480.349 360.044 480.349 L 356.332 480.349 356.332 484.061 L 356.332 487.773 196.288 487.773 L 36.245 487.773 36.245 484.061 L 36.245 480.349 32.531 480.349 L 28.818 480.349 28.929 407.533 L 29.039 334.716 32.642 334.589 L 36.245 334.462 36.245 330.987 L 36.245 327.511 196.288 327.511 L 356.332 327.511 356.332 331.004 M58.515 378.384 L 58.515 400.000 80.131 400.000 L 101.747 400.000 101.747 396.507 L 101.747 393.013 87.118 393.013 L 72.489 393.013 72.489 374.891 L 72.489 356.769 65.502 356.769 L 58.515 356.769 58.515 378.384 M116.594 378.384 L 116.594 400.000 138.210 400.000 L 159.825 400.000 159.825 396.507 L 159.825 393.013 145.415 393.013 L 131.004 393.013 131.004 385.590 L 131.004 378.166 141.703 378.166 L 152.402 378.166 152.402 374.672 L 152.402 371.179 141.703 371.179 L 131.004 371.179 131.004 367.467 L 131.004 363.755 145.415 363.755 L 159.825 363.755 159.825 360.262 L 159.825 356.769 138.210 356.769 L 116.594 356.769 116.594 378.384 M174.672 371.179 L 174.672 385.590 178.166 385.590 L 181.659 385.590 181.659 371.179 L 181.659 356.769 178.166 356.769 L 174.672 356.769 174.672 371.179 M203.827 371.288 L 203.712 385.808 200.109 385.935 L 196.507 386.062 196.507 389.537 L 196.507 393.013 192.795 393.013 L 189.083 393.013 189.083 389.520 L 189.083 386.026 185.590 386.026 L 182.096 386.026 182.096 389.520 L 182.096 393.013 185.590 393.013 L 189.083 393.013 189.083 396.507 L 189.083 400.000 196.288 400.000 L 203.493 400.000 203.493 396.507 L 203.493 393.013 207.205 393.013 L 210.917 393.013 210.917 389.301 L 210.917 385.590 214.410 385.590 L 217.904 385.590 217.904 371.179 L 217.904 356.769 210.923 356.769 L 203.942 356.769 203.827 371.288 M232.751 378.384 L 232.751 400.000 254.585 400.000 L 276.419 400.000 276.419 396.507 L 276.419 393.013 261.790 393.013 L 247.162 393.013 247.162 385.590 L 247.162 378.166 258.079 378.166 L 268.996 378.166 268.996 374.672 L 268.996 371.179 258.079 371.179 L 247.162 371.179 247.162 367.467 L 247.162 363.755 261.790 363.755 L 276.419 363.755 276.419 360.262 L 276.419 356.769 254.585 356.769 L 232.751 356.769 232.751 378.384 M290.830 378.384 L 290.830 400.000 312.664 400.000 L 334.498 400.000 334.498 396.507 L 334.498 393.013 319.869 393.013 L 305.240 393.013 305.240 374.891 L 305.240 356.769 298.035 356.769 L 290.830 356.769 290.830 378.384 M356.332 505.677 L 356.332 509.170 360.044 509.170 L 363.755 509.170 363.755 582.096 L 363.755 655.022 360.044 655.022 L 356.332 655.022 356.332 658.734 L 356.332 662.445 196.288 662.445 L 36.245 662.445 36.245 658.734 L 36.245 655.022 32.531 655.022 L 28.818 655.022 28.929 582.205 L 29.039 509.389 32.642 509.262 L 36.245 509.135 36.245 505.659 L 36.245 502.183 196.288 502.183 L 356.332 502.183 356.332 505.677 M58.515 553.057 L 58.515 574.672 80.131 574.672 L 101.747 574.672 101.747 571.179 L 101.747 567.686 87.118 567.686 L 72.489 567.686 72.489 549.563 L 72.489 531.441 65.502 531.441 L 58.515 531.441 58.515 553.057 M123.581 534.934 L 123.581 538.428 127.293 538.428 L 131.004 538.428 131.004 553.057 L 131.004 567.686 127.293 567.686 L 123.581 567.686 123.581 571.179 L 123.581 574.672 137.991 574.672 L 152.402 574.672 152.402 571.179 L 152.402 567.686 148.908 567.686 L 145.415 567.686 145.415 553.057 L 145.415 538.428 148.908 538.428 L 152.402 538.428 152.402 534.934 L 152.402 531.441 137.991 531.441 L 123.581 531.441 123.581 534.934 M174.672 553.057 L 174.672 574.672 178.158 574.672 L 181.644 574.672 181.761 563.865 L 181.878 553.057 185.480 552.930 L 189.083 552.803 189.083 556.533 L 189.083 560.262 192.795 560.262 L 196.507 560.262 196.507 563.974 L 196.507 567.686 200.218 567.686 L 203.930 567.686 203.930 571.179 L 203.930 574.672 210.917 574.672 L 217.904 574.672 217.904 553.057 L 217.904 531.441 210.917 531.441 L 203.930 531.441 203.930 542.358 L 203.930 553.275 200.000 553.275 L 196.070 553.275 196.070 549.563 L 196.070 545.852 192.576 545.852 L 189.083 545.852 189.083 542.358 L 189.083 538.865 185.371 538.865 L 181.659 538.865 181.659 535.153 L 181.659 531.441 178.166 531.441 L 174.672 531.441 174.672 553.057 M232.751 553.057 L 232.751 574.672 254.585 574.672 L 276.419 574.672 276.419 571.179 L 276.419 567.686 261.790 567.686 L 247.162 567.686 247.162 560.262 L 247.162 552.838 258.079 552.838 L 268.996 552.838 268.996 549.345 L 268.996 545.852 258.079 545.852 L 247.162 545.852 247.162 542.140 L 247.162 538.428 261.790 538.428 L 276.419 538.428 276.419 534.934 L 276.419 531.441 254.585 531.441 L 232.751 531.441 232.751 553.057 M298.253 535.153 L 298.253 538.865 294.541 538.865 L 290.830 538.865 290.830 542.358 L 290.830 545.852 294.541 545.852 L 298.253 545.852 298.253 549.345 L 298.253 552.838 305.459 552.838 L 312.664 552.838 312.664 560.262 L 312.664 567.686 305.459 567.686 L 298.253 567.686 298.253 564.192 L 298.253 560.699 294.541 560.699 L 290.830 560.699 290.830 564.192 L 290.830 567.686 294.541 567.686 L 298.253 567.686 298.253 571.179 L 298.253 574.672 312.664 574.672 L 327.074 574.672 327.074 571.179 L 327.074 567.686 330.786 567.686 L 334.498 567.686 334.498 560.480 L 334.498 553.275 330.786 553.275 L 327.074 553.275 327.074 549.563 L 327.074 545.852 316.157 545.852 L 305.240 545.852 305.240 542.140 L 305.240 538.428 316.157 538.428 L 327.074 538.428 327.074 534.934 L 327.074 531.441 312.664 531.441 L 298.253 531.441 298.253 535.153 M363.755 724.236 L 363.755 727.948 367.467 727.948 L 371.179 727.948 371.179 731.441 L 371.179 734.934 374.672 734.934 L 378.166 734.934 378.166 873.362 L 378.166 1011.790 374.690 1011.790 L 371.214 1011.790 371.088 1015.393 L 370.961 1018.996 367.358 1019.122 L 363.755 1019.249 363.755 1022.725 L 363.755 1026.201 225.546 1026.201 L 87.336 1026.201 87.336 1022.725 L 87.336 1019.249 83.734 1019.122 L 80.131 1018.996 80.004 1015.393 L 79.877 1011.790 76.183 1011.790 L 72.489 1011.790 72.489 873.362 L 72.489 734.934 76.201 734.934 L 79.913 734.934 79.913 731.459 L 79.913 727.983 83.515 727.856 L 87.118 727.729 87.245 724.127 L 87.372 720.524 225.564 720.524 L 363.755 720.524 363.755 724.236 M101.747 745.852 L 101.747 749.345 225.328 749.345 L 348.908 749.345 348.908 745.852 L 348.908 742.358 225.328 742.358 L 101.747 742.358 101.747 745.852 M94.760 873.362 L 94.760 996.943 98.253 996.943 L 101.747 996.943 101.747 873.362 L 101.747 749.782 98.253 749.782 L 94.760 749.782 94.760 873.362 M349.345 873.362 L 349.345 996.943 352.838 996.943 L 356.332 996.943 356.332 873.362 L 356.332 749.782 352.838 749.782 L 349.345 749.782 349.345 873.362 M101.747 1000.873 L 101.747 1004.367 225.328 1004.367 L 348.908 1004.367 348.908 1000.873 L 348.908 997.380 225.328 997.380 L 101.747 997.380 101.747 1000.873 " stroke="none" fill="#40423f" fill-rule="evenodd"></path><path id="path1" d="M36.681 40.175 L 36.681 43.668 32.969 43.668 L 29.258 43.668 29.258 69.214 L 29.258 94.760 14.629 94.760 L 0.000 94.760 0.000 98.253 L 0.000 101.747 14.629 101.747 L 29.258 101.747 29.258 116.376 L 29.258 131.004 32.733 131.004 L 36.209 131.004 36.336 134.607 L 36.463 138.210 196.397 138.319 L 356.332 138.429 356.332 134.717 L 356.332 131.004 360.044 131.004 L 363.755 131.004 363.755 116.376 L 363.755 101.747 381.878 101.747 L 400.000 101.747 400.000 98.253 L 400.000 94.760 381.878 94.760 L 363.755 94.760 363.755 69.214 L 363.755 43.668 360.044 43.668 L 356.332 43.668 356.332 40.175 L 356.332 36.681 196.507 36.681 L 36.681 36.681 36.681 40.175 M349.345 47.380 L 349.345 51.092 352.838 51.092 L 356.332 51.092 356.332 87.336 L 356.332 123.581 352.838 123.581 L 349.345 123.581 349.345 127.293 L 349.345 131.004 196.507 131.004 L 43.668 131.004 43.668 127.293 L 43.668 123.581 39.956 123.581 L 36.245 123.581 36.245 87.336 L 36.245 51.092 39.956 51.092 L 43.668 51.092 43.668 47.380 L 43.668 43.668 196.507 43.668 L 349.345 43.668 349.345 47.380 M51.092 54.585 L 51.092 58.079 47.380 58.079 L 43.668 58.079 43.668 87.336 L 43.668 116.594 47.380 116.594 L 51.092 116.594 51.092 120.087 L 51.092 123.581 196.507 123.581 L 341.921 123.581 341.921 120.087 L 341.921 116.594 345.415 116.594 L 348.908 116.594 348.908 87.336 L 348.908 58.079 345.415 58.079 L 341.921 58.079 341.921 54.585 L 341.921 51.092 196.507 51.092 L 51.092 51.092 51.092 54.585 M94.760 69.214 L 94.760 72.926 83.843 72.926 L 72.926 72.926 72.926 76.419 L 72.926 79.913 83.843 79.913 L 94.760 79.913 94.760 83.624 L 94.760 87.336 98.253 87.336 L 101.747 87.336 101.747 94.760 L 101.747 102.183 98.253 102.183 L 94.760 102.183 94.760 105.677 L 94.760 109.170 80.131 109.170 L 65.502 109.170 65.502 105.677 L 65.502 102.183 61.773 102.183 L 58.045 102.183 58.171 98.362 L 58.297 94.541 61.900 94.415 L 65.502 94.288 65.502 98.017 L 65.502 101.747 72.707 101.747 L 79.913 101.747 79.913 94.541 L 79.913 87.336 72.707 87.336 L 65.502 87.336 65.502 83.843 L 65.502 80.349 61.773 80.349 L 58.045 80.349 58.171 76.528 L 58.297 72.707 61.900 72.581 L 65.502 72.454 65.502 68.978 L 65.502 65.502 80.131 65.502 L 94.760 65.502 94.760 69.214 M152.838 68.978 L 152.838 72.454 156.441 72.581 L 160.044 72.707 160.044 76.419 L 160.044 80.131 152.729 80.251 L 145.415 80.370 145.415 76.648 L 145.415 72.926 138.210 72.926 L 131.004 72.926 131.004 87.336 L 131.004 101.747 138.210 101.747 L 145.415 101.747 145.415 98.024 L 145.415 94.302 152.729 94.422 L 160.044 94.541 160.044 98.253 L 160.044 101.965 156.441 102.092 L 152.838 102.219 152.838 105.695 L 152.838 109.170 138.210 109.170 L 123.581 109.170 123.581 105.695 L 123.581 102.219 119.978 102.092 L 116.376 101.965 116.376 87.336 L 116.376 72.707 119.978 72.581 L 123.581 72.454 123.581 68.978 L 123.581 65.502 138.210 65.502 L 152.838 65.502 152.838 68.978 M210.917 68.978 L 210.917 72.454 214.520 72.581 L 218.122 72.707 218.122 87.336 L 218.122 101.965 214.520 102.092 L 210.917 102.219 210.917 105.695 L 210.917 109.170 196.288 109.170 L 181.659 109.170 181.659 105.677 L 181.659 102.183 178.166 102.183 L 174.672 102.183 174.672 87.336 L 174.672 72.489 178.166 72.489 L 181.659 72.489 181.659 68.996 L 181.659 65.502 196.288 65.502 L 210.917 65.502 210.917 68.978 M268.996 68.996 L 268.996 72.489 272.707 72.489 L 276.419 72.489 276.419 79.913 L 276.419 87.336 272.707 87.336 L 268.996 87.336 268.996 91.048 L 268.996 94.760 265.502 94.760 L 262.009 94.760 262.009 98.253 L 262.009 101.747 269.214 101.747 L 276.419 101.747 276.419 105.459 L 276.419 109.170 268.996 109.170 L 261.572 109.170 261.572 105.677 L 261.572 102.183 258.079 102.183 L 254.585 102.183 254.585 98.472 L 254.585 94.760 251.092 94.760 L 247.598 94.760 247.598 101.965 L 247.598 109.170 240.175 109.170 L 232.751 109.170 232.751 87.336 L 232.751 65.502 250.873 65.502 L 268.996 65.502 268.996 68.996 M334.498 69.214 L 334.498 72.926 320.087 72.926 L 305.677 72.926 305.677 76.419 L 305.677 79.913 316.594 79.913 L 327.511 79.913 327.511 83.624 L 327.511 87.336 316.594 87.336 L 305.677 87.336 305.677 94.541 L 305.677 101.747 320.087 101.747 L 334.498 101.747 334.498 105.459 L 334.498 109.170 312.664 109.170 L 290.830 109.170 290.830 87.336 L 290.830 65.502 312.664 65.502 L 334.498 65.502 334.498 69.214 M189.083 87.336 L 189.083 101.747 196.288 101.747 L 203.493 101.747 203.493 87.336 L 203.493 72.926 196.288 72.926 L 189.083 72.926 189.083 87.336 M247.598 80.131 L 247.598 87.336 254.585 87.336 L 261.572 87.336 261.572 80.131 L 261.572 72.926 254.585 72.926 L 247.598 72.926 247.598 80.131 M0.000 156.550 L 0.000 160.262 200.000 160.262 L 400.000 160.262 400.000 156.550 L 400.000 152.838 200.000 152.838 L 0.000 152.838 0.000 156.550 M0.000 203.712 L 0.000 240.175 200.000 240.175 L 400.000 240.175 400.000 203.712 L 400.000 167.249 200.000 167.249 L 0.000 167.249 0.000 203.712 M0.000 251.092 L 0.000 254.585 200.000 254.585 L 400.000 254.585 400.000 251.092 L 400.000 247.598 200.000 247.598 L 0.000 247.598 0.000 251.092 M36.590 331.114 L 36.463 334.716 32.860 334.843 L 29.258 334.970 29.258 407.660 L 29.258 480.349 32.969 480.349 L 36.681 480.349 36.681 483.843 L 36.681 487.336 196.507 487.336 L 356.332 487.336 356.332 483.843 L 356.332 480.349 360.044 480.349 L 363.755 480.349 363.755 407.642 L 363.755 334.934 360.044 334.934 L 356.332 334.934 356.332 331.223 L 356.332 327.511 196.524 327.511 L 36.717 327.511 36.590 331.114 M349.345 338.428 L 349.345 341.921 352.838 341.921 L 356.332 341.921 356.332 407.424 L 356.332 472.926 352.838 472.926 L 349.345 472.926 349.345 476.638 L 349.345 480.349 196.507 480.349 L 43.668 480.349 43.668 476.638 L 43.668 472.926 39.956 472.926 L 36.245 472.926 36.245 407.424 L 36.245 341.921 39.956 341.921 L 43.668 341.921 43.668 338.428 L 43.668 334.934 196.507 334.934 L 349.345 334.934 349.345 338.428 M62.118 342.248 L 51.092 342.373 51.092 345.859 L 51.092 349.345 47.380 349.345 L 43.668 349.345 43.668 407.642 L 43.668 465.939 47.380 465.939 L 51.092 465.939 51.092 469.432 L 51.092 472.926 196.507 472.926 L 341.921 472.926 341.921 469.432 L 341.921 465.939 345.415 465.939 L 348.908 465.939 348.908 407.642 L 348.908 349.345 345.433 349.345 L 341.957 349.345 341.830 345.742 L 341.703 342.140 207.424 342.132 C 133.570 342.127,68.182 342.180,62.118 342.248 M72.821 374.782 L 72.935 393.013 87.341 393.013 L 101.747 393.013 101.747 396.725 L 101.747 400.437 79.913 400.437 L 58.079 400.437 58.079 378.675 C 58.079 366.707,58.214 356.778,58.380 356.613 C 58.546 356.447,61.837 356.365,65.695 356.431 L 72.707 356.550 72.821 374.782 M160.044 360.262 L 160.044 363.974 145.524 364.089 L 131.004 364.204 131.004 367.691 L 131.004 371.179 141.921 371.179 L 152.838 371.179 152.838 374.891 L 152.838 378.603 141.921 378.603 L 131.004 378.603 131.004 385.808 L 131.004 393.013 145.633 393.013 L 160.262 393.013 160.262 396.725 L 160.262 400.437 138.210 400.437 L 116.157 400.437 116.157 378.675 C 116.157 366.707,116.290 356.781,116.452 356.619 C 116.615 356.457,126.489 356.375,138.396 356.437 L 160.044 356.550 160.044 360.262 M181.993 371.070 L 182.108 385.590 185.595 385.590 L 189.083 385.590 189.083 389.301 L 189.083 393.013 192.559 393.013 L 196.035 393.013 196.161 389.410 L 196.288 385.808 199.885 385.681 L 203.482 385.554 203.597 371.052 L 203.712 356.550 210.917 356.550 L 218.122 356.550 218.122 371.179 L 218.122 385.808 214.520 385.935 L 210.917 386.062 210.917 389.537 L 210.917 393.013 207.424 393.013 L 203.930 393.013 203.930 396.725 L 203.930 400.437 196.507 400.437 L 189.083 400.437 189.083 396.725 L 189.083 393.013 185.371 393.013 L 181.659 393.013 181.659 389.520 L 181.659 386.026 178.166 386.026 L 174.672 386.026 174.672 371.161 L 174.672 356.297 178.275 356.423 L 181.878 356.550 181.993 371.070 M276.419 360.262 L 276.419 364.192 262.009 364.192 L 247.598 364.192 247.598 367.686 L 247.598 371.179 258.297 371.179 L 268.996 371.179 268.996 374.891 L 268.996 378.603 258.297 378.603 L 247.598 378.603 247.598 385.808 L 247.598 393.013 262.009 393.013 L 276.419 393.013 276.419 396.725 L 276.419 400.437 254.585 400.437 L 232.751 400.437 232.751 378.384 L 232.751 356.332 254.585 356.332 L 276.419 356.332 276.419 360.262 M305.572 374.782 L 305.686 393.013 320.092 393.013 L 334.498 393.013 334.498 396.725 L 334.498 400.437 312.664 400.437 L 290.830 400.437 290.830 378.374 L 290.830 356.311 298.144 356.430 L 305.459 356.550 305.572 374.782 M36.590 505.786 L 36.463 509.389 32.860 509.515 L 29.258 509.642 29.258 582.332 L 29.258 655.022 32.969 655.022 L 36.681 655.022 36.681 658.515 L 36.681 662.009 196.507 662.009 L 356.332 662.009 356.332 658.515 L 356.332 655.022 360.044 655.022 L 363.755 655.022 363.755 582.314 L 363.755 509.607 360.044 509.607 L 356.332 509.607 356.332 505.895 L 356.332 502.183 196.524 502.183 L 36.717 502.183 36.590 505.786 M349.345 513.100 L 349.345 516.594 352.838 516.594 L 356.332 516.594 356.332 582.096 L 356.332 647.598 352.838 647.598 L 349.345 647.598 349.345 651.310 L 349.345 655.022 196.507 655.022 L 43.668 655.022 43.668 651.310 L 43.668 647.598 39.956 647.598 L 36.245 647.598 36.245 582.096 L 36.245 516.594 39.956 516.594 L 43.668 516.594 43.668 513.100 L 43.668 509.607 196.507 509.607 L 349.345 509.607 349.345 513.100 M72.817 516.921 L 51.092 517.039 51.092 520.528 L 51.092 524.017 47.380 524.017 L 43.668 524.017 43.668 582.314 L 43.668 640.611 47.380 640.611 L 51.092 640.611 51.092 644.105 L 51.092 647.598 196.507 647.598 L 341.921 647.598 341.921 644.105 L 341.921 640.611 345.415 640.611 L 348.908 640.611 348.908 582.314 L 348.908 524.017 345.433 524.017 L 341.957 524.017 341.830 520.415 L 341.703 516.812 218.122 516.808 C 150.153 516.805,84.765 516.856,72.817 516.921 M72.821 549.454 L 72.935 567.686 87.341 567.686 L 101.747 567.686 101.747 571.397 L 101.747 575.109 79.913 575.109 L 58.079 575.109 58.079 553.348 C 58.079 541.379,58.214 531.451,58.380 531.285 C 58.546 531.119,61.837 531.037,65.695 531.103 L 72.707 531.223 72.821 549.454 M152.746 535.044 L 152.872 538.865 149.144 538.865 L 145.415 538.865 145.415 553.275 L 145.415 567.686 149.127 567.686 L 152.838 567.686 152.838 571.397 L 152.838 575.109 138.210 575.109 L 123.581 575.109 123.581 571.397 L 123.581 567.686 127.293 567.686 L 131.004 567.686 131.004 553.275 L 131.004 538.865 127.293 538.865 L 123.581 538.865 123.581 534.929 L 123.581 530.993 138.100 531.108 L 152.620 531.223 152.746 535.044 M182.005 534.825 L 182.131 538.428 185.607 538.428 L 189.083 538.428 189.083 542.140 L 189.083 545.852 192.795 545.852 L 196.507 545.852 196.507 549.345 L 196.507 552.838 199.992 552.838 L 203.478 552.838 203.595 542.031 L 203.712 531.223 210.917 531.223 L 218.122 531.223 218.235 553.166 L 218.349 575.109 210.921 575.109 L 203.493 575.109 203.493 571.397 L 203.493 567.686 199.782 567.686 L 196.070 567.686 196.070 564.192 L 196.070 560.699 192.576 560.699 L 189.083 560.699 189.083 556.987 L 189.083 553.275 185.590 553.275 L 182.096 553.275 182.096 564.192 L 182.096 575.109 178.384 575.109 L 174.672 575.109 174.672 553.039 L 174.672 530.969 178.275 531.096 L 181.878 531.223 182.005 534.825 M276.419 534.934 L 276.419 538.865 262.009 538.865 L 247.598 538.865 247.598 542.358 L 247.598 545.852 258.297 545.852 L 268.996 545.852 268.996 549.563 L 268.996 553.275 258.297 553.275 L 247.598 553.275 247.598 560.480 L 247.598 567.686 262.009 567.686 L 276.419 567.686 276.419 571.397 L 276.419 575.109 254.585 575.109 L 232.751 575.109 232.751 553.057 L 232.751 531.004 254.585 531.004 L 276.419 531.004 276.419 534.934 M327.293 534.934 L 327.293 538.646 316.485 538.763 L 305.677 538.880 305.677 542.366 L 305.677 545.852 316.594 545.852 L 327.511 545.852 327.511 549.345 L 327.511 552.838 331.004 552.838 L 334.498 552.838 334.498 560.262 L 334.498 567.686 331.004 567.686 L 327.511 567.686 327.511 571.397 L 327.511 575.109 312.882 575.109 L 298.253 575.109 298.253 571.397 L 298.253 567.686 294.541 567.686 L 290.830 567.686 290.830 563.974 L 290.830 560.262 294.541 560.262 L 298.253 560.262 298.253 563.974 L 298.253 567.686 305.459 567.686 L 312.664 567.686 312.664 560.480 L 312.664 553.275 305.459 553.275 L 298.253 553.275 298.253 549.563 L 298.253 545.852 294.541 545.852 L 290.830 545.852 290.830 542.140 L 290.830 538.428 294.541 538.428 L 298.253 538.428 298.253 534.710 L 298.253 530.993 312.773 531.108 L 327.293 531.223 327.293 534.934 M87.336 731.423 L 87.336 734.899 83.734 735.026 L 80.131 735.153 80.021 873.472 L 79.911 1011.790 83.624 1011.790 L 87.336 1011.790 87.336 1015.284 L 87.336 1018.777 225.546 1018.777 L 363.755 1018.777 363.755 1015.284 L 363.755 1011.790 367.249 1011.790 L 370.742 1011.790 370.742 873.362 L 370.742 734.934 367.249 734.934 L 363.755 734.934 363.755 731.441 L 363.755 727.948 225.546 727.948 L 87.336 727.948 87.336 731.423 M356.332 738.646 L 356.332 742.358 360.044 742.358 L 363.755 742.358 363.755 873.362 L 363.755 1004.367 360.044 1004.367 L 356.332 1004.367 356.332 1008.079 L 356.332 1011.790 225.546 1011.790 L 94.760 1011.790 94.760 1008.079 L 94.760 1004.367 91.048 1004.367 L 87.336 1004.367 87.336 873.362 L 87.336 742.358 91.048 742.358 L 94.760 742.358 94.760 738.646 L 94.760 734.934 225.546 734.934 L 356.332 734.934 356.332 738.646 M101.747 873.362 L 101.747 996.943 225.328 996.943 L 348.908 996.943 348.908 873.362 L 348.908 749.782 225.328 749.782 L 101.747 749.782 101.747 873.362 " stroke="none" fill="#c4d39c" fill-rule="evenodd"></path><path id="path2" d="M28.926 68.881 L 28.821 94.311 14.301 94.433 L -0.218 94.554 14.315 94.657 C 25.616 94.737,28.895 94.638,29.057 94.214 C 29.172 93.914,29.213 82.369,29.149 68.559 L 29.032 43.450 28.926 68.881 M43.668 47.380 L 43.668 51.092 40.175 51.092 L 36.681 51.092 36.681 87.336 L 36.681 123.581 40.175 123.581 L 43.668 123.581 43.668 127.293 L 43.668 131.004 196.288 131.004 L 348.908 131.004 348.908 127.293 L 348.908 123.581 352.620 123.581 L 356.332 123.581 356.332 87.336 L 356.332 51.092 352.620 51.092 L 348.908 51.092 348.908 47.380 L 348.908 43.668 196.288 43.668 L 43.668 43.668 43.668 47.380 M341.921 54.367 L 341.921 58.079 345.633 58.079 L 349.345 58.079 349.345 87.336 L 349.345 116.594 345.633 116.594 L 341.921 116.594 341.921 120.306 L 341.921 124.019 196.397 123.909 L 50.873 123.799 50.747 120.197 L 50.620 116.594 47.144 116.594 L 43.668 116.594 43.668 87.336 L 43.668 58.079 47.162 58.079 L 50.655 58.079 50.655 54.658 C 50.655 52.777,50.786 51.106,50.946 50.946 C 51.106 50.786,116.641 50.655,196.579 50.655 L 341.921 50.655 341.921 54.367 M94.410 68.879 L 94.323 72.474 83.515 72.599 L 72.707 72.723 83.529 72.825 C 95.885 72.940,94.875 73.331,94.649 68.518 L 94.497 65.284 94.410 68.879 M152.554 68.996 C 152.554 71.037,152.630 71.872,152.721 70.852 C 152.813 69.831,152.813 68.160,152.721 67.140 C 152.630 66.119,152.554 66.954,152.554 68.996 M181.814 69.214 C 181.813 71.376,181.887 72.315,181.978 71.301 C 182.070 70.288,182.071 68.519,181.981 67.371 C 181.891 66.223,181.816 67.052,181.814 69.214 M134.628 72.815 C 136.742 72.895,140.082 72.894,142.052 72.814 C 144.022 72.733,142.293 72.667,138.210 72.668 C 134.127 72.668,132.515 72.734,134.628 72.815 M196.288 72.811 L 203.493 72.947 203.493 87.336 L 203.493 101.726 196.288 101.862 L 189.082 101.998 196.397 101.981 L 203.712 101.965 203.712 87.336 L 203.712 72.707 196.397 72.691 L 189.082 72.675 196.288 72.811 M250.764 72.814 C 252.866 72.894,256.305 72.894,258.406 72.814 C 260.508 72.734,258.788 72.669,254.585 72.669 C 250.382 72.669,248.663 72.734,250.764 72.814 M312.773 72.816 C 316.796 72.888,323.379 72.888,327.402 72.816 C 331.425 72.744,328.133 72.685,320.087 72.685 C 312.041 72.685,308.750 72.744,312.773 72.816 M58.231 76.419 C 58.231 78.461,58.306 79.296,58.398 78.275 C 58.490 77.254,58.490 75.584,58.398 74.563 C 58.306 73.543,58.231 74.378,58.231 76.419 M218.100 87.336 C 218.100 95.382,218.159 98.674,218.231 94.651 C 218.303 90.628,218.303 84.045,218.231 80.022 C 218.159 75.999,218.100 79.290,218.100 87.336 M78.301 80.239 C 81.377 80.314,86.289 80.314,89.218 80.239 C 92.146 80.163,89.629 80.102,83.624 80.102 C 77.620 80.102,75.224 80.164,78.301 80.239 M311.052 80.239 C 314.128 80.314,319.040 80.314,321.969 80.239 C 324.897 80.163,322.380 80.102,316.376 80.102 C 310.371 80.102,307.975 80.164,311.052 80.239 M80.010 94.422 L 79.913 101.726 72.598 101.857 L 65.284 101.988 72.612 102.086 C 81.280 102.201,80.412 103.111,80.240 94.087 L 80.107 87.118 80.010 94.422 M249.031 94.645 C 250.179 94.735,251.947 94.734,252.961 94.642 C 253.974 94.551,253.035 94.477,250.873 94.478 C 248.712 94.479,247.883 94.554,249.031 94.645 M261.756 94.910 C 261.632 95.233,261.589 96.952,261.661 98.731 L 261.790 101.965 269.105 101.981 L 276.420 101.998 269.214 101.862 L 262.009 101.726 262.009 98.260 L 262.009 94.795 265.611 94.648 L 269.214 94.501 265.598 94.412 C 262.909 94.346,261.924 94.474,261.756 94.910 M372.846 94.650 C 377.966 94.720,386.219 94.720,391.187 94.650 C 396.154 94.580,391.965 94.523,381.878 94.523 C 371.790 94.523,367.726 94.580,372.846 94.650 M58.231 98.253 C 58.231 100.295,58.306 101.130,58.398 100.109 C 58.490 99.088,58.490 97.418,58.398 96.397 C 58.306 95.377,58.231 96.212,58.231 98.253 M94.478 105.459 C 94.477 107.620,94.551 108.559,94.642 107.546 C 94.734 106.532,94.735 104.764,94.645 103.616 C 94.554 102.468,94.479 103.297,94.478 105.459 M134.628 102.072 C 136.742 102.152,140.082 102.152,142.052 102.071 C 144.022 101.991,142.293 101.925,138.210 101.925 C 134.127 101.926,132.515 101.992,134.628 102.072 M181.814 105.459 C 181.813 107.620,181.887 108.559,181.978 107.546 C 182.070 106.532,182.071 104.764,181.981 103.616 C 181.891 102.468,181.816 103.297,181.814 105.459 M312.773 102.073 C 316.796 102.146,323.379 102.146,327.402 102.073 C 331.425 102.001,328.133 101.942,320.087 101.942 C 312.041 101.942,308.750 102.001,312.773 102.073 M0.000 127.511 L 0.000 152.838 200.000 152.838 L 400.000 152.838 400.000 127.511 L 400.000 102.183 381.878 102.183 L 363.755 102.183 363.755 116.594 L 363.755 131.004 360.044 131.004 L 356.332 131.004 356.332 134.716 L 356.332 138.428 196.288 138.428 L 36.245 138.428 36.245 134.716 L 36.245 131.004 32.533 131.004 L 28.821 131.004 28.821 116.594 L 28.821 102.183 14.410 102.183 L 0.000 102.183 0.000 127.511 M152.554 105.677 C 152.554 107.718,152.630 108.553,152.721 107.533 C 152.813 106.512,152.813 104.842,152.721 103.821 C 152.630 102.800,152.554 103.635,152.554 105.677 M0.000 163.755 L 0.000 167.249 200.000 167.249 L 400.000 167.249 400.000 163.755 L 400.000 160.262 200.000 160.262 L 0.000 160.262 0.000 163.755 M0.000 243.668 L 0.000 247.162 200.000 247.162 L 400.000 247.162 400.000 243.668 L 400.000 240.175 200.000 240.175 L 0.000 240.175 0.000 243.668 M99.891 254.913 C 154.951 254.974,245.049 254.974,300.109 254.913 C 355.169 254.852,310.120 254.802,200.000 254.802 C 89.880 254.802,44.831 254.852,99.891 254.913 M29.023 335.044 C 28.908 335.344,28.866 368.210,28.928 408.079 L 29.042 480.568 29.150 407.769 L 29.258 334.970 32.860 334.823 L 36.463 334.676 32.847 334.587 C 30.287 334.524,29.170 334.657,29.023 335.044 M358.201 334.819 C 359.349 334.910,361.118 334.908,362.131 334.817 C 363.145 334.725,362.205 334.651,360.044 334.653 C 357.882 334.654,357.053 334.729,358.201 334.819 M43.668 338.646 L 43.668 342.358 40.175 342.358 L 36.681 342.358 36.681 407.642 L 36.681 472.926 40.175 472.926 L 43.668 472.926 43.668 476.638 L 43.668 480.349 196.288 480.349 L 348.908 480.349 348.908 476.638 L 348.908 472.926 352.620 472.926 L 356.332 472.926 356.332 407.660 L 356.332 342.393 352.729 342.267 L 349.127 342.140 349.000 338.537 L 348.873 334.934 196.271 334.934 L 43.668 334.934 43.668 338.646 M341.921 345.633 L 341.921 349.345 345.633 349.345 L 349.345 349.345 349.345 407.642 L 349.345 465.939 345.633 465.939 L 341.921 465.939 341.921 469.651 L 341.921 473.364 196.397 473.254 L 50.873 473.144 50.747 469.541 L 50.620 465.939 47.144 465.939 L 43.668 465.939 43.668 407.642 L 43.668 349.345 47.162 349.345 L 50.655 349.345 50.655 345.633 L 50.655 341.921 196.288 341.921 L 341.921 341.921 341.921 345.633 M58.184 378.493 L 58.079 400.437 80.022 400.332 L 101.965 400.227 80.244 400.109 L 58.523 399.992 58.406 378.271 L 58.289 356.550 58.184 378.493 M72.644 360.480 C 72.643 362.642,72.717 363.581,72.808 362.568 C 72.900 361.554,72.901 359.786,72.811 358.638 C 72.720 357.490,72.645 358.319,72.644 360.480 M203.596 371.052 L 203.493 385.554 199.891 385.701 L 196.288 385.848 199.905 385.937 C 204.389 386.048,203.966 387.690,203.821 370.739 L 203.699 356.550 203.596 371.052 M218.100 371.179 C 218.100 379.225,218.159 382.516,218.231 378.493 C 218.303 374.471,218.303 367.888,218.231 363.865 C 218.159 359.842,218.100 363.133,218.100 371.179 M152.402 374.665 L 152.402 378.151 141.594 378.275 L 130.786 378.400 141.812 378.501 L 152.838 378.603 152.838 374.891 C 152.838 372.849,152.740 371.179,152.620 371.179 C 152.500 371.179,152.402 372.748,152.402 374.665 M252.511 378.492 C 255.573 378.567,260.584 378.567,263.646 378.492 C 266.709 378.417,264.203 378.356,258.079 378.356 C 251.954 378.356,249.449 378.417,252.511 378.492 M181.844 386.176 C 181.720 386.499,181.687 388.218,181.770 389.997 L 181.923 393.231 182.009 389.646 L 182.096 386.062 185.699 385.914 L 189.301 385.767 185.685 385.678 C 182.996 385.612,182.011 385.740,181.844 386.176 M127.432 400.327 C 133.513 400.396,143.339 400.396,149.266 400.327 C 155.194 400.258,150.218 400.202,138.210 400.203 C 126.201 400.203,121.351 400.259,127.432 400.327 M192.707 400.325 C 194.820 400.406,198.161 400.405,200.131 400.325 C 202.100 400.244,200.371 400.178,196.288 400.179 C 192.205 400.179,190.594 400.245,192.707 400.325 M243.559 400.327 C 249.623 400.396,259.547 400.396,265.611 400.327 C 271.676 400.259,266.714 400.203,254.585 400.203 C 242.456 400.203,237.495 400.259,243.559 400.327 M301.638 400.327 C 307.702 400.396,317.626 400.396,323.690 400.327 C 329.754 400.259,324.793 400.203,312.664 400.203 C 300.535 400.203,295.573 400.259,301.638 400.327 M29.023 509.716 C 28.908 510.016,28.866 542.882,28.928 582.751 L 29.042 655.240 29.150 582.441 L 29.258 509.642 32.860 509.495 L 36.463 509.348 32.847 509.259 C 30.287 509.196,29.170 509.330,29.023 509.716 M358.201 509.492 C 359.349 509.582,361.118 509.581,362.131 509.489 C 363.145 509.398,362.205 509.324,360.044 509.325 C 357.882 509.327,357.053 509.402,358.201 509.492 M43.668 513.319 L 43.668 517.031 40.175 517.031 L 36.681 517.031 36.681 582.314 L 36.681 647.598 40.175 647.598 L 43.668 647.598 43.668 651.310 L 43.668 655.022 196.288 655.022 L 348.908 655.022 348.908 651.310 L 348.908 647.598 352.620 647.598 L 356.332 647.598 356.332 582.332 L 356.332 517.066 352.729 516.939 L 349.127 516.812 349.000 513.210 L 348.873 509.607 196.271 509.607 L 43.668 509.607 43.668 513.319 M341.921 520.306 L 341.921 524.017 345.633 524.017 L 349.345 524.017 349.345 582.314 L 349.345 640.611 345.633 640.611 L 341.921 640.611 341.921 644.324 L 341.921 648.036 196.397 647.926 L 50.873 647.817 50.747 644.214 L 50.620 640.611 47.144 640.611 L 43.668 640.611 43.668 582.314 L 43.668 524.017 47.162 524.017 L 50.655 524.017 50.655 520.306 L 50.655 516.594 196.288 516.594 L 341.921 516.594 341.921 520.306 M58.184 553.166 L 58.079 575.109 80.022 575.004 L 101.965 574.899 80.244 574.782 L 58.523 574.664 58.406 552.944 L 58.289 531.223 58.184 553.166 M72.642 534.934 C 72.642 536.976,72.717 537.811,72.809 536.790 C 72.901 535.770,72.901 534.099,72.809 533.079 C 72.717 532.058,72.642 532.893,72.642 534.934 M152.554 534.934 C 152.554 536.976,152.630 537.811,152.721 536.790 C 152.813 535.770,152.813 534.099,152.721 533.079 C 152.630 532.058,152.554 532.893,152.554 534.934 M203.683 542.358 C 203.683 548.483,203.745 550.988,203.820 547.926 C 203.895 544.864,203.895 539.853,203.820 536.790 C 203.745 533.728,203.683 536.234,203.683 542.358 M218.009 552.948 L 217.904 574.672 210.935 574.672 L 203.965 574.672 203.809 571.070 L 203.652 567.467 203.682 571.179 L 203.712 574.891 210.817 575.011 C 216.262 575.103,217.973 575.001,218.136 574.574 C 218.254 574.268,218.297 564.389,218.232 552.620 L 218.114 531.223 218.009 552.948 M183.528 538.749 C 184.677 538.840,186.445 538.839,187.459 538.747 C 188.472 538.655,187.533 538.582,185.371 538.583 C 183.210 538.584,182.380 538.659,183.528 538.749 M292.699 538.749 C 293.847 538.840,295.615 538.839,296.629 538.747 C 297.642 538.655,296.703 538.582,294.541 538.583 C 292.380 538.584,291.551 538.659,292.699 538.749 M196.225 549.563 C 196.224 551.725,196.297 552.664,196.389 551.651 C 196.481 550.637,196.482 548.869,196.391 547.721 C 196.301 546.573,196.226 547.402,196.225 549.563 M183.734 553.158 C 184.754 553.250,186.425 553.250,187.445 553.158 C 188.466 553.066,187.631 552.991,185.590 552.991 C 183.548 552.991,182.713 553.066,183.734 553.158 M252.511 553.165 C 255.573 553.240,260.584 553.240,263.646 553.165 C 266.709 553.090,264.203 553.028,258.079 553.028 C 251.954 553.028,249.449 553.090,252.511 553.165 M301.877 553.164 C 303.991 553.244,307.331 553.244,309.301 553.163 C 311.271 553.082,309.541 553.017,305.459 553.017 C 301.376 553.018,299.764 553.084,301.877 553.164 M292.699 560.584 C 293.847 560.674,295.615 560.673,296.629 560.581 C 297.642 560.490,296.703 560.416,294.541 560.417 C 292.380 560.418,291.551 560.493,292.699 560.584 M152.402 571.173 L 152.402 574.661 137.882 574.782 L 123.362 574.903 138.100 575.006 L 152.838 575.109 152.838 571.397 C 152.838 569.356,152.740 567.686,152.620 567.686 C 152.500 567.686,152.402 569.255,152.402 571.173 M176.310 574.992 C 177.331 575.084,179.001 575.084,180.022 574.992 C 181.043 574.900,180.207 574.825,178.166 574.825 C 176.124 574.825,175.289 574.900,176.310 574.992 M243.559 575.000 C 249.623 575.068,259.547 575.068,265.611 575.000 C 271.676 574.931,266.714 574.875,254.585 574.875 C 242.456 574.875,237.495 574.931,243.559 575.000 M305.349 574.999 C 309.372 575.071,315.955 575.071,319.978 574.999 C 324.001 574.927,320.710 574.868,312.664 574.868 C 304.618 574.868,301.326 574.927,305.349 574.999 M370.934 731.659 L 370.961 735.153 374.454 735.179 L 377.948 735.206 374.581 735.053 L 371.214 734.900 371.061 731.533 L 370.908 728.166 370.934 731.659 M72.489 873.362 L 72.489 1011.790 76.310 1011.702 L 80.131 1011.613 76.528 1011.466 L 72.926 1011.318 72.926 873.362 L 72.926 735.406 76.528 735.259 L 80.131 735.112 76.310 735.023 L 72.489 734.934 72.489 873.362 M101.747 738.865 L 101.747 742.358 98.271 742.358 L 94.795 742.358 94.668 745.961 L 94.541 749.563 90.939 749.690 L 87.336 749.817 87.336 873.362 L 87.336 996.908 90.939 997.035 L 94.541 997.162 94.668 1000.764 L 94.795 1004.367 98.271 1004.367 L 101.747 1004.367 101.747 1007.860 L 101.747 1011.354 225.328 1011.354 L 348.908 1011.354 348.908 1007.860 L 348.908 1004.367 352.620 1004.367 L 356.332 1004.367 356.332 1000.655 L 356.332 996.943 360.044 996.943 L 363.755 996.943 363.755 873.362 L 363.755 749.782 360.044 749.782 L 356.332 749.782 356.332 746.070 L 356.332 742.358 352.620 742.358 L 348.908 742.358 348.908 738.865 L 348.908 735.371 225.328 735.371 L 101.747 735.371 101.747 738.865 M348.908 745.852 L 348.908 749.345 225.328 749.345 L 101.747 749.345 101.747 745.852 L 101.747 742.358 225.328 742.358 L 348.908 742.358 348.908 745.852 M349.017 869.978 L 349.125 990.175 349.236 869.978 L 349.347 749.782 352.839 749.782 L 356.332 749.782 356.332 873.362 L 356.332 996.943 225.546 996.943 L 94.760 996.943 94.760 873.362 L 94.760 749.782 221.834 749.782 L 348.908 749.782 349.017 869.978 M348.908 1000.873 L 348.908 1004.367 225.328 1004.367 L 101.747 1004.367 101.747 1000.873 L 101.747 997.380 225.328 997.380 L 348.908 997.380 348.908 1000.873 M371.033 1011.645 C 370.873 1011.805,370.742 1013.467,370.742 1015.339 L 370.742 1018.742 367.358 1018.895 L 363.974 1019.049 367.467 1019.022 L 370.961 1018.996 371.087 1015.410 L 371.214 1011.825 374.799 1011.678 L 378.384 1011.531 374.854 1011.443 C 372.913 1011.394,371.194 1011.485,371.033 1011.645 M81.987 1019.097 C 83.008 1019.189,84.678 1019.189,85.699 1019.097 C 86.719 1019.005,85.884 1018.930,83.843 1018.930 C 81.801 1018.930,80.966 1019.005,81.987 1019.097 " stroke="none" fill="#6c7453" fill-rule="evenodd"></path><path id="path3" d="M36.333 40.066 L 36.422 43.886 36.569 40.284 L 36.717 36.682 196.633 36.572 L 356.550 36.462 196.397 36.353 L 36.245 36.245 36.333 40.066 M349.063 47.380 C 349.062 49.541,349.136 50.481,349.227 49.467 C 349.319 48.454,349.320 46.685,349.230 45.537 C 349.140 44.389,349.065 45.218,349.063 47.380 M50.839 51.242 C 50.715 51.564,50.682 53.284,50.766 55.063 L 50.918 58.297 51.005 54.695 L 51.092 51.093 196.616 50.983 L 342.140 50.872 196.602 50.764 C 75.094 50.673,51.027 50.752,50.839 51.242 M36.453 87.336 C 36.453 107.391,36.507 115.595,36.572 105.568 C 36.637 95.540,36.637 79.132,36.572 69.105 C 36.507 59.078,36.453 67.282,36.453 87.336 M349.115 87.336 C 349.115 103.548,349.169 110.180,349.236 102.074 C 349.302 93.968,349.302 80.704,349.236 72.598 C 349.169 64.492,349.115 71.124,349.115 87.336 M60.153 72.809 C 61.174 72.901,62.844 72.901,63.865 72.809 C 64.885 72.717,64.050 72.642,62.009 72.642 C 59.967 72.642,59.132 72.717,60.153 72.809 M116.356 73.038 C 116.240 73.341,116.197 79.973,116.260 87.776 L 116.376 101.965 119.869 101.992 L 123.362 102.018 119.978 101.865 L 116.594 101.711 116.594 87.336 L 116.594 72.961 120.197 72.814 L 123.799 72.667 120.183 72.578 C 117.612 72.515,116.506 72.648,116.356 73.038 M156.441 72.808 L 159.825 72.961 159.825 76.426 L 159.825 79.892 152.620 80.028 L 145.414 80.164 152.729 80.147 L 160.044 80.131 160.044 76.419 L 160.044 72.707 156.550 72.681 L 153.057 72.655 156.441 72.808 M176.310 72.809 C 177.331 72.901,179.001 72.901,180.022 72.809 C 181.043 72.717,180.207 72.642,178.166 72.642 C 176.124 72.642,175.289 72.717,176.310 72.809 M212.555 72.809 C 213.575 72.901,215.246 72.901,216.266 72.809 C 217.287 72.717,216.452 72.642,214.410 72.642 C 212.369 72.642,211.534 72.717,212.555 72.809 M270.865 72.811 C 272.013 72.901,273.781 72.900,274.795 72.808 C 275.808 72.717,274.869 72.643,272.707 72.644 C 270.546 72.645,269.717 72.720,270.865 72.811 M72.642 76.419 C 72.642 78.461,72.717 79.296,72.809 78.275 C 72.901 77.254,72.901 75.584,72.809 74.563 C 72.717 73.543,72.642 74.378,72.642 76.419 M247.340 80.131 C 247.340 84.214,247.405 85.943,247.486 83.973 C 247.567 82.004,247.567 78.663,247.487 76.550 C 247.407 74.437,247.341 76.048,247.340 80.131 M261.751 80.131 C 261.750 84.214,261.816 85.943,261.897 83.973 C 261.977 82.004,261.978 78.663,261.898 76.550 C 261.817 74.437,261.751 76.048,261.751 80.131 M305.393 76.419 C 305.393 78.461,305.468 79.296,305.560 78.275 C 305.652 77.254,305.652 75.584,305.560 74.563 C 305.468 73.543,305.393 74.378,305.393 76.419 M59.948 80.234 C 61.096 80.324,62.864 80.323,63.878 80.232 C 64.891 80.140,63.952 80.066,61.790 80.068 C 59.629 80.069,58.800 80.144,59.948 80.234 M94.478 83.624 C 94.477 85.786,94.551 86.725,94.642 85.712 C 94.734 84.698,94.735 82.930,94.645 81.782 C 94.554 80.634,94.479 81.463,94.478 83.624 M327.229 83.624 C 327.228 85.786,327.302 86.725,327.393 85.712 C 327.485 84.698,327.486 82.930,327.396 81.782 C 327.306 80.634,327.231 81.463,327.229 83.624 M305.419 94.541 C 305.418 98.624,305.484 100.354,305.565 98.384 C 305.645 96.414,305.646 93.074,305.566 90.960 C 305.485 88.847,305.419 90.459,305.419 94.541 M60.153 94.643 C 61.174 94.735,62.844 94.735,63.865 94.643 C 64.885 94.551,64.050 94.476,62.009 94.476 C 59.967 94.476,59.132 94.551,60.153 94.643 M152.620 94.645 L 159.825 94.781 159.825 98.246 L 159.825 101.711 156.441 101.865 L 153.057 102.018 156.550 101.992 L 160.044 101.965 160.044 98.253 L 160.044 94.541 152.729 94.525 L 145.414 94.509 152.620 94.645 M247.340 101.965 C 247.340 106.048,247.405 107.777,247.486 105.807 C 247.567 103.838,247.567 100.497,247.487 98.384 C 247.407 96.271,247.341 97.882,247.340 101.965 M14.295 102.074 L 28.809 102.195 28.930 116.709 L 29.051 131.223 29.155 116.485 L 29.258 101.747 14.520 101.850 L -0.218 101.953 14.295 102.074 M59.948 102.068 C 61.096 102.158,62.864 102.157,63.878 102.066 C 64.891 101.974,63.952 101.900,61.790 101.902 C 59.629 101.903,58.800 101.978,59.948 102.068 M96.397 102.066 C 97.418 102.158,99.088 102.158,100.109 102.066 C 101.130 101.975,100.295 101.899,98.253 101.899 C 96.212 101.899,95.377 101.975,96.397 102.066 M176.310 102.066 C 177.331 102.158,179.001 102.158,180.022 102.066 C 181.043 101.975,180.207 101.899,178.166 101.899 C 176.124 101.899,175.289 101.975,176.310 102.066 M212.555 102.066 C 213.575 102.158,215.246 102.158,216.266 102.066 C 217.287 101.975,216.452 101.899,214.410 101.899 C 212.369 101.899,211.534 101.975,212.555 102.066 M257.952 102.071 L 261.537 102.218 261.684 105.803 L 261.831 109.389 261.920 105.568 L 262.009 101.747 258.188 101.836 L 254.367 101.924 257.952 102.071 M372.846 102.074 C 377.966 102.144,386.219 102.144,391.187 102.074 C 396.154 102.004,391.965 101.946,381.878 101.947 C 371.790 101.947,367.726 102.004,372.846 102.074 M50.847 120.306 L 50.873 123.799 196.397 123.800 L 341.921 123.801 196.524 123.690 L 51.127 123.579 50.974 120.196 L 50.820 116.812 50.847 120.306 M349.063 127.293 C 349.062 129.454,349.136 130.393,349.227 129.380 C 349.319 128.366,349.320 126.598,349.230 125.450 C 349.140 124.302,349.065 125.131,349.063 127.293 M99.891 247.489 C 154.951 247.550,245.049 247.550,300.109 247.489 C 355.169 247.428,310.120 247.378,200.000 247.378 C 89.880 247.378,44.831 247.428,99.891 247.489 M36.397 331.004 C 36.397 333.046,36.472 333.881,36.564 332.860 C 36.656 331.840,36.656 330.169,36.564 329.148 C 36.472 328.128,36.397 328.963,36.397 331.004 M349.100 338.646 L 349.127 342.140 352.620 342.166 L 356.114 342.193 352.747 342.040 L 349.380 341.887 349.227 338.520 L 349.074 335.153 349.100 338.646 M36.352 407.533 L 36.460 473.144 36.572 407.769 L 36.684 342.393 40.285 342.246 L 43.886 342.099 40.066 342.010 L 36.245 341.921 36.352 407.533 M50.744 345.742 L 50.833 349.563 50.980 345.968 L 51.127 342.373 62.135 342.249 L 73.144 342.124 61.900 342.023 L 50.655 341.921 50.744 345.742 M349.120 407.642 C 349.120 439.825,349.172 452.927,349.236 436.756 C 349.299 420.586,349.299 394.254,349.236 378.241 C 349.172 362.228,349.120 375.459,349.120 407.642 M61.900 356.657 C 63.881 356.738,67.123 356.738,69.105 356.657 C 71.086 356.576,69.465 356.510,65.502 356.510 C 61.539 356.510,59.918 356.576,61.900 356.657 M116.359 356.874 C 116.243 357.176,116.201 367.151,116.266 379.039 L 116.384 400.655 116.489 378.712 L 116.594 356.769 138.210 356.769 L 159.825 356.769 159.825 360.256 L 159.825 363.744 145.306 363.868 L 130.786 363.992 145.415 363.983 L 160.044 363.974 160.044 360.262 L 160.044 356.550 138.307 356.437 C 121.150 356.348,116.525 356.440,116.359 356.874 M178.275 356.651 L 181.659 356.804 181.659 371.179 L 181.659 385.554 178.057 385.701 L 174.454 385.848 178.281 385.937 L 182.108 386.026 181.993 371.288 L 181.878 356.550 178.384 356.524 L 174.891 356.497 178.275 356.651 M207.314 356.657 C 209.296 356.738,212.538 356.738,214.520 356.657 C 216.501 356.576,214.880 356.510,210.917 356.510 C 206.954 356.510,205.333 356.576,207.314 356.657 M243.559 356.659 C 249.623 356.728,259.547 356.728,265.611 356.659 C 271.676 356.591,266.714 356.535,254.585 356.535 C 242.456 356.535,237.495 356.591,243.559 356.659 M298.030 356.654 L 305.231 356.790 305.352 375.011 L 305.473 393.231 305.466 374.891 L 305.459 356.550 298.144 356.534 L 290.829 356.518 298.030 356.654 M247.250 367.576 L 247.339 371.397 247.486 367.801 L 247.633 364.204 262.135 364.083 L 276.638 363.962 261.900 363.859 L 247.162 363.755 247.250 367.576 M72.685 378.603 C 72.685 386.648,72.744 389.940,72.816 385.917 C 72.888 381.894,72.888 375.311,72.816 371.288 C 72.744 367.265,72.685 370.557,72.685 378.603 M247.340 385.808 C 247.340 389.891,247.405 391.620,247.486 389.650 C 247.567 387.681,247.567 384.340,247.487 382.227 C 247.407 380.113,247.341 381.725,247.340 385.808 M212.555 385.909 C 213.575 386.001,215.246 386.001,216.266 385.909 C 217.287 385.817,216.452 385.742,214.410 385.742 C 212.369 385.742,211.534 385.817,212.555 385.909 M196.222 389.520 C 196.222 391.561,196.298 392.396,196.390 391.376 C 196.482 390.355,196.482 388.684,196.390 387.664 C 196.298 386.643,196.222 387.478,196.222 389.520 M159.980 396.725 C 159.979 398.886,160.053 399.826,160.144 398.812 C 160.236 397.799,160.237 396.030,160.147 394.882 C 160.057 393.734,159.982 394.563,159.980 396.725 M203.648 396.725 C 203.647 398.886,203.721 399.826,203.813 398.812 C 203.904 397.799,203.905 396.030,203.815 394.882 C 203.725 393.734,203.650 394.563,203.648 396.725 M50.847 469.651 L 50.873 473.144 196.397 473.145 L 341.921 473.146 196.524 473.035 L 51.127 472.924 50.974 469.541 L 50.820 466.157 50.847 469.651 M349.063 476.638 C 349.062 478.799,349.136 479.738,349.227 478.725 C 349.319 477.711,349.320 475.943,349.230 474.795 C 349.140 473.647,349.065 474.476,349.063 476.638 M36.333 483.952 L 36.245 487.773 196.397 487.664 L 356.550 487.556 196.633 487.445 L 36.717 487.335 36.569 483.733 L 36.422 480.131 36.333 483.952 M36.397 505.677 C 36.397 507.718,36.472 508.553,36.564 507.533 C 36.656 506.512,36.656 504.842,36.564 503.821 C 36.472 502.800,36.397 503.635,36.397 505.677 M349.100 513.319 L 349.127 516.812 352.620 516.839 L 356.114 516.865 352.747 516.712 L 349.380 516.559 349.227 513.192 L 349.074 509.825 349.100 513.319 M36.352 582.205 L 36.460 647.817 36.572 582.441 L 36.684 517.066 40.285 516.919 L 43.886 516.772 40.066 516.683 L 36.245 516.594 36.352 582.205 M50.744 520.415 L 50.833 524.236 50.980 520.637 L 51.127 517.039 72.834 516.921 L 94.541 516.804 72.598 516.699 L 50.655 516.594 50.744 520.415 M349.120 582.314 C 349.120 614.498,349.172 627.599,349.236 611.429 C 349.299 595.258,349.299 568.927,349.236 552.914 C 349.172 536.901,349.120 550.131,349.120 582.314 M61.900 531.329 C 63.881 531.410,67.123 531.410,69.105 531.329 C 71.086 531.248,69.465 531.182,65.502 531.182 C 61.539 531.182,59.918 531.248,61.900 531.329 M130.677 531.331 C 134.700 531.403,141.283 531.403,145.306 531.331 C 149.329 531.259,146.037 531.200,137.991 531.200 C 129.945 531.200,126.654 531.259,130.677 531.331 M178.258 531.323 L 181.625 531.476 181.778 534.843 L 181.931 538.210 181.904 534.716 L 181.878 531.223 178.384 531.196 L 174.891 531.170 178.258 531.323 M207.314 531.329 C 209.296 531.410,212.538 531.410,214.520 531.329 C 216.501 531.248,214.880 531.182,210.917 531.182 C 206.954 531.182,205.333 531.248,207.314 531.329 M243.559 531.332 C 249.623 531.400,259.547 531.400,265.611 531.332 C 271.676 531.263,266.714 531.207,254.585 531.207 C 242.456 531.207,237.495 531.263,243.559 531.332 M312.555 531.329 L 327.074 531.453 327.074 534.933 L 327.074 538.413 316.266 538.529 L 305.459 538.646 305.430 542.250 L 305.402 545.854 305.557 542.367 L 305.712 538.880 316.502 538.763 L 327.293 538.646 327.293 534.934 L 327.293 531.223 312.664 531.214 L 298.035 531.205 312.555 531.329 M72.685 553.057 C 72.685 561.223,72.744 564.502,72.816 560.343 C 72.888 556.185,72.888 549.504,72.816 545.496 C 72.744 541.489,72.685 544.891,72.685 553.057 M125.450 538.749 C 126.598 538.840,128.366 538.839,129.380 538.747 C 130.393 538.655,129.454 538.582,127.293 538.583 C 125.131 538.584,124.302 538.659,125.450 538.749 M147.284 538.749 C 148.432 538.840,150.201 538.839,151.214 538.747 C 152.228 538.655,151.288 538.582,149.127 538.583 C 146.965 538.584,146.136 538.659,147.284 538.749 M247.250 542.249 L 247.339 546.070 247.486 542.473 L 247.633 538.876 262.135 538.755 L 276.638 538.634 261.900 538.531 L 247.162 538.428 247.250 542.249 M327.266 549.563 L 327.293 553.057 330.786 553.083 L 334.279 553.110 330.913 552.957 L 327.546 552.804 327.393 549.437 L 327.240 546.070 327.266 549.563 M198.144 553.158 C 199.165 553.250,200.835 553.250,201.856 553.158 C 202.877 553.066,202.041 552.991,200.000 552.991 C 197.959 552.991,197.123 553.066,198.144 553.158 M181.849 564.192 C 181.849 570.317,181.911 572.822,181.986 569.760 C 182.061 566.698,182.061 561.687,181.986 558.624 C 181.911 555.562,181.849 558.068,181.849 564.192 M247.340 560.480 C 247.340 564.563,247.405 566.292,247.486 564.323 C 247.567 562.353,247.567 559.012,247.487 556.899 C 247.407 554.786,247.341 556.397,247.340 560.480 M192.450 560.587 L 196.035 560.733 196.182 564.319 L 196.329 567.904 196.418 564.083 L 196.507 560.262 192.686 560.351 L 188.865 560.440 192.450 560.587 M327.229 571.397 C 327.228 573.559,327.302 574.498,327.393 573.485 C 327.485 572.471,327.486 570.703,327.396 569.555 C 327.306 568.407,327.231 569.236,327.229 571.397 M50.847 644.323 L 50.873 647.817 196.397 647.818 L 341.921 647.819 196.524 647.708 L 51.127 647.597 50.974 644.213 L 50.820 640.830 50.847 644.323 M349.063 651.310 C 349.062 653.472,349.136 654.411,349.227 653.397 C 349.319 652.384,349.320 650.615,349.230 649.467 C 349.140 648.319,349.065 649.148,349.063 651.310 M36.333 658.624 L 36.245 662.445 196.397 662.337 L 356.550 662.228 196.633 662.118 L 36.717 662.008 36.569 658.406 L 36.422 654.803 36.333 658.624 M87.336 724.236 L 87.336 727.948 83.624 727.948 L 79.913 727.948 79.913 731.659 L 79.913 735.371 76.419 735.371 L 72.926 735.371 72.926 873.362 L 72.926 1011.354 76.419 1011.354 L 79.911 1011.354 80.021 873.253 L 80.131 735.153 83.734 735.026 L 87.336 734.899 87.336 731.423 L 87.336 727.948 225.546 727.948 L 363.755 727.948 363.755 731.441 L 363.755 734.934 367.249 734.934 L 370.742 734.934 370.742 873.362 L 370.742 1011.790 367.249 1011.790 L 363.755 1011.790 363.755 1015.284 L 363.755 1018.777 225.546 1018.777 L 87.336 1018.777 87.336 1015.284 L 87.336 1011.790 83.624 1011.790 L 79.913 1011.790 79.913 1015.284 L 79.913 1018.777 83.624 1018.777 L 87.336 1018.777 87.336 1022.489 L 87.336 1026.201 225.546 1026.201 L 363.755 1026.201 363.755 1022.489 L 363.755 1018.777 367.231 1018.777 L 370.707 1018.777 370.834 1015.175 L 370.961 1011.572 374.563 1011.445 L 378.166 1011.318 378.166 873.362 L 378.166 735.406 374.563 735.280 L 370.961 735.153 370.834 731.550 L 370.707 727.948 367.231 727.948 L 363.755 727.948 363.755 724.236 L 363.755 720.524 225.546 720.524 L 87.336 720.524 87.336 724.236 M94.760 738.646 L 94.760 742.358 91.048 742.358 L 87.336 742.358 87.336 746.088 L 87.336 749.817 90.939 749.690 L 94.541 749.563 94.668 745.961 L 94.795 742.358 98.271 742.358 L 101.747 742.358 101.747 738.865 L 101.747 735.371 225.328 735.371 L 348.908 735.371 348.908 738.865 L 348.908 742.358 352.620 742.358 L 356.332 742.358 356.332 746.070 L 356.332 749.782 360.044 749.782 L 363.755 749.782 363.755 746.070 L 363.755 742.358 360.044 742.358 L 356.332 742.358 356.332 738.646 L 356.332 734.934 225.546 734.934 L 94.760 734.934 94.760 738.646 M349.061 993.450 C 349.061 995.491,349.136 996.326,349.228 995.306 C 349.320 994.285,349.320 992.615,349.228 991.594 C 349.136 990.573,349.061 991.408,349.061 993.450 M87.336 1000.637 L 87.336 1004.367 91.048 1004.367 L 94.760 1004.367 94.760 1008.079 L 94.760 1011.790 225.546 1011.790 L 356.332 1011.790 356.332 1008.079 L 356.332 1004.367 360.044 1004.367 L 363.755 1004.367 363.755 1000.655 L 363.755 996.943 360.044 996.943 L 356.332 996.943 356.332 1000.655 L 356.332 1004.367 352.620 1004.367 L 348.908 1004.367 348.908 1007.860 L 348.908 1011.354 225.328 1011.354 L 101.747 1011.354 101.747 1007.860 L 101.747 1004.367 98.271 1004.367 L 94.795 1004.367 94.668 1000.764 L 94.541 997.162 90.939 997.035 L 87.336 996.908 87.336 1000.637 " stroke="none" fill="#8c9473" fill-rule="evenodd"></path></g></svg>